<svg xmlns="http://www.w3.org/2000/svg" version="1.1" xmlns:xlink="http://www.w3.org/1999/xlink" width="1500" height="228" viewBox="0 0 1500 228"><svg xml:space="preserve" width="1500" height="228" data-version="2" data-id="lg_6Io2gw2wKglpPvLdJF" viewBox="0 0 545 228" x="0" y="0"><rect width="100%" height="100%" fill="transparent"></rect><path fill="#111" d="M37.89 211.205q0 13.24-16.28 13.24t-16.28-13.24v-191q0-6.34 3.58-11.45 3.59-5.11 13.8-5.11h93.84q9.94 0 10.49 13.8.55 14.08-10.49 14.08H37.89Zm70.66-102.4q0 4.69-1.79 8.97-1.8 4.28-4.97 7.31-3.18 3.04-7.32 4.83-4.14 1.8-9.1 1.8-9.39 0-16.01-6.63-6.63-6.62-6.63-16.28t6.63-16.28q6.62-6.63 16.01-6.63 4.96 0 9.1 1.8 4.14 1.79 7.32 4.96 3.17 3.18 4.97 7.32 1.79 4.14 1.79 8.83"></path><rect width="121.89" height="220.8" x="-60.95" y="-110.4" fill="none" rx="0" ry="0" transform="translate(66.78 114.55)"></rect><path fill="#0469ff" d="M191.07 211.205q0 13.24-16.56 13.24-16.28 0-16.28-13.24V15.515q0-13.25 16.28-13.25 16.56 0 16.56 13.25Z"></path><rect width="32.84" height="222.18" x="-16.42" y="-111.09" fill="none" rx="0" ry="0" transform="translate(175.15 113.86)"></rect><path fill="#111" d="M308.929 211.755q0 13.25-16.56 13.25-16.29 0-16.29-13.25V31.525h-48.3q-9.93 0-10.49-14.08 0-13.8 10.49-13.8h129.45q10.48 0 9.93 13.8 0 14.08-9.93 14.08h-48.3Z"></path><rect width="150.06" height="221.36" x="-75.03" y="-110.68" fill="none" rx="0" ry="0" transform="translate(292.82 114.83)"></rect><path fill="#111" d="M456.59 224.175q-5.52 0-11.73-1.8-6.21-1.79-8.97-6.76-6.35-21.53-13.25-44.16-6.9-22.63-13.8-44.43-7.73-25.67-16.56-53.41-8.83-27.74-16.56-53.13-1.66-6.07 1.93-10.63 3.59-4.55 10.21-6.76 4.14-1.1 7.18-1.1 9.38 0 12.14 9.38l20.43 65.41q2.76 9.94 6.48 21.81 3.73 11.87 7.59 24.29 3.87 12.42 7.73 24.7 3.86 12.28 7.18 22.77 5.24-17.39 11.45-37.68 6.21-20.28 12.7-41.26 6.48-20.97 12.83-41.54 6.35-20.56 11.87-38.5 3.03-9.38 11.87-9.38 3.31 0 7.72 1.1 15.18 4.14 11.87 17.39-14.9 48.3-30.08 97.43-15.18 49.13-30.09 97.7-2.2 5.52-8.14 7.04-5.93 1.52-12 1.52"></path><rect width="164.02" height="222.18" x="-82.01" y="-111.09" fill="none" rx="0" ry="0" transform="translate(457.16 113.58)"></rect></svg></svg>